<svg width="36" height="31" viewBox="0 0 36 31" fill="none" xmlns="http://www.w3.org/2000/svg">
<ellipse cx="10.5177" cy="8.96479" rx="3.28125" ry="3.90625" transform="rotate(-14.9213 10.5177 8.96479)" fill="#C4C4C4"/>
<ellipse cx="20.4823" cy="6.30927" rx="3.28125" ry="3.90625" transform="rotate(-14.9213 20.4823 6.30927)" fill="#C4C4C4"/>
<ellipse cx="28.9963" cy="12.7724" rx="3.28125" ry="3.90625" transform="rotate(-14.9213 28.9963 12.7724)" fill="#C4C4C4"/>
<ellipse cx="6.34905" cy="18.8076" rx="3.28125" ry="3.90625" transform="rotate(-14.9213 6.34905 18.8076)" fill="#C4C4C4"/>
<path fill-rule="evenodd" clip-rule="evenodd" d="M22.4361 18.0531C22.4126 17.8563 22.3749 17.6588 22.3224 17.4617C21.7225 15.2103 19.411 13.8715 17.1596 14.4715C14.9083 15.0714 13.5695 17.3829 14.1694 19.6343C14.2299 19.8611 14.3077 20.0788 14.4011 20.286C12.9346 21.2595 12.1804 23.0928 12.6588 24.8879C13.2587 27.1393 15.5702 28.4781 17.8216 27.8781C18.9402 27.58 19.8336 26.8594 20.3757 25.9335C21.3067 26.4668 22.4402 26.6473 23.5589 26.3493C25.8102 25.7493 27.149 23.4378 26.5491 21.1865C26.0426 19.2858 24.3163 18.0356 22.4361 18.0531Z" fill="#C4C4C4"/>
<path fill-rule="evenodd" clip-rule="evenodd" d="M19.5413 23.39C18.4845 26.1885 16.5688 28.0023 14.9035 27.5987C12.9671 27.1294 12.1023 23.8399 12.972 20.2513C13.8001 16.8345 15.902 14.3785 17.7728 14.5564C19.4195 14.301 21.8122 15.4062 23.7871 17.4898C26.3272 20.1697 27.2141 23.4533 25.768 24.824C24.5046 26.0214 21.8786 25.3626 19.5413 23.39Z" fill="#C4C4C4"/>
</svg>
